<svg width="86" height="72" viewBox="0 0 86 72" fill="none" xmlns="http://www.w3.org/2000/svg">
<path d="M76.6965 0.453125L76.6918 68.7657C77.9148 70.7782 79.1801 71.552 80.2412 71.5469C81.2941 71.5419 82.5459 70.7588 83.745 68.8066L80.4701 33.9152L80.4319 33.4902L80.694 33.1515C84.4574 28.3226 85.7725 19.9799 84.6989 12.9235C84.1622 9.39512 83.0385 6.20159 81.4651 3.94401C80.1456 2.05078 78.5715 0.843074 76.6968 0.453125H76.6965ZM10.5126 0.453836L10.5098 12.3846L8.27742 12.3818V0.454547H5.73493L5.73529 12.3823H3.49975V0.454547H0.910156V18.8017C0.909979 20.8309 2.01744 21.9561 3.76102 22.6518L4.48262 22.9401L4.46662 23.7168C4.11115 38.7478 3.75977 53.7786 3.40697 68.8094C4.62267 70.7986 5.87143 71.5519 6.91118 71.5469C7.95093 71.5419 9.19862 70.7689 10.3989 68.8041C9.98741 53.7772 9.57595 38.7499 9.16521 23.7228L9.14388 22.9408L9.86779 22.6553C11.7027 21.9256 12.8962 20.6871 12.8962 18.8028V0.453836H10.5126ZM43.0001 7.38477C35.4109 7.38477 28.1325 10.3996 22.7661 15.766C17.3997 21.1324 14.3849 28.4108 14.3849 36C14.3849 43.5892 17.3997 50.8676 22.7661 56.234C28.1325 61.6004 35.4109 64.6152 43.0001 64.6152C50.5894 64.6152 57.8678 61.6004 63.2342 56.234C68.6006 50.8676 71.6154 43.5892 71.6154 36C71.6154 28.4108 68.6006 21.1324 63.2342 15.766C57.8678 10.3996 50.5894 7.38477 43.0001 7.38477Z" fill="#B9B9B9"/>
</svg>
