<svg width="92" height="92" viewBox="0 0 92 92" fill="none" xmlns="http://www.w3.org/2000/svg">
<g clip-path="url(#clip0_323_2090)">
<path fill-rule="evenodd" clip-rule="evenodd" d="M6.6875 9.9502C6.6875 7.36433 7.71473 4.88438 9.54321 3.0559C11.3717 1.22742 13.8516 0.200195 16.4375 0.200195L74.9375 0.200195C77.5234 0.200195 80.0034 1.22742 81.8318 3.0559C83.6603 4.88438 84.6876 7.36433 84.6876 9.9502V16.3267H6.6875V9.9502ZM6.6875 24.4517V81.4502C6.6875 84.0361 7.71473 86.516 9.54321 88.3445C11.3717 90.173 13.8516 91.2002 16.4375 91.2002H74.9375C77.5234 91.2002 80.0034 90.173 81.8318 88.3445C83.6603 86.516 84.6876 84.0361 84.6876 81.4502V24.4517H6.6875ZM22.2355 55.4502C22.2377 52.789 22.6904 50.1473 23.5745 47.6372C25.5318 42.0954 29.4979 37.4902 34.6883 34.7328C39.8786 31.9754 45.9148 31.2668 51.6026 32.7471C57.2904 34.2274 62.2154 37.7889 65.4029 42.7267C68.5904 47.6646 69.8082 53.619 68.8154 59.4119C67.8227 65.2047 64.6916 70.4138 60.0418 74.0085C55.3919 77.6032 49.5622 79.3215 43.706 78.8234C37.8499 78.3253 32.394 75.6472 28.4181 71.3189C24.4421 66.9906 22.2357 61.3275 22.2355 55.4502ZM29.4505 53.5002C29.5781 52.7425 29.9699 52.0545 30.5566 51.5583C31.1432 51.0621 31.8867 50.7898 32.655 50.7897H34.956C39.9285 50.7897 42.8405 52.0052 45.46 53.0907L45.85 53.2532C48.3005 54.2737 50.777 55.2292 55.6715 55.2292H58.902C59.3738 55.2294 59.8399 55.3323 60.2679 55.5308C60.6958 55.7293 61.0755 56.0186 61.3804 56.3785C61.6853 56.7385 61.9082 57.1606 62.0336 57.6154C62.159 58.0702 62.1839 58.5468 62.1065 59.0122C61.3028 63.2746 58.8589 67.0516 55.3002 69.5315C51.7415 72.0114 47.3519 72.9962 43.0748 72.2742C38.7978 71.5523 34.9746 69.1813 32.427 65.6708C29.8794 62.1602 28.8107 57.7903 29.4505 53.5002Z" fill="#B9B9B9"/>
</g>
<defs>
<clipPath id="clip0_323_2090">
<rect width="91.0001" height="91" fill="white" transform="translate(0.1875 0.200195)"/>
</clipPath>
</defs>
</svg>
