<svg width="92" height="92" viewBox="0 0 92 92" fill="none" xmlns="http://www.w3.org/2000/svg">
<path fill-rule="evenodd" clip-rule="evenodd" d="M81.4904 40.3708C72.1577 31.0385 59.5 25.7958 46.3019 25.7958C33.1037 25.7958 20.4461 31.0385 11.1133 40.3708C10.3091 41.1482 9.23184 41.5786 8.1134 41.5694C6.99496 41.5603 5.92487 41.1122 5.13361 40.3216C4.34235 39.5311 3.89323 38.4615 3.88299 37.343C3.87275 36.2246 4.3022 35.1469 5.07885 34.342C27.8459 11.5693 64.7578 11.5693 87.5249 34.342C87.9321 34.7357 88.2568 35.2065 88.4801 35.7271C88.7035 36.2476 88.8209 36.8074 88.8255 37.3738C88.8302 37.9402 88.722 38.5018 88.5072 39.0259C88.2925 39.5501 87.9756 40.0262 87.5749 40.4265C87.1742 40.8268 86.6978 41.1433 86.1734 41.3576C85.6491 41.5718 85.0874 41.6794 84.521 41.6743C83.9546 41.6691 83.3949 41.5511 82.8746 41.3273C82.3543 41.1035 81.8837 40.7784 81.4904 40.3708ZM69.4273 52.434C66.3905 49.397 62.7852 46.9879 58.8173 45.3442C54.8495 43.7006 50.5967 42.8547 46.3019 42.8547C42.007 42.8547 37.7543 43.7006 33.7864 45.3442C29.8185 46.9879 26.2133 49.397 23.1765 52.434C22.3679 53.1874 21.2983 53.5976 20.1933 53.5781C19.0882 53.5586 18.0338 53.111 17.2523 52.3294C16.4707 51.5479 16.023 50.4935 16.0035 49.3884C15.984 48.2833 16.3942 47.2138 17.1477 46.4052C24.8804 38.6741 35.3673 34.3309 46.3019 34.3309C57.2364 34.3309 67.7233 38.6741 75.456 46.4052C76.2095 47.2138 76.6197 48.2833 76.6002 49.3884C76.5807 50.4935 76.133 51.5479 75.3515 52.3294C74.5699 53.111 73.5156 53.5586 72.4105 53.5781C71.3054 53.5976 70.2359 53.1874 69.4273 52.434ZM57.3584 64.5028C54.4252 61.5698 50.4471 59.922 46.299 59.922C42.151 59.922 38.1728 61.5698 35.2397 64.5028C34.846 64.91 34.3751 65.2348 33.8546 65.4581C33.3341 65.6814 32.7743 65.7988 32.2079 65.8035C31.6415 65.8081 31.0799 65.6999 30.5558 65.4852C30.0316 65.2705 29.5555 64.9535 29.1552 64.5528C28.7549 64.1521 28.4384 63.6757 28.2241 63.1514C28.0099 62.627 27.9022 62.0653 27.9074 61.4989C27.9126 60.9325 28.0305 60.3729 28.2543 59.8525C28.4781 59.3322 28.8033 58.8617 29.2109 58.4684C33.7439 53.936 39.8917 51.3898 46.3019 51.3898C52.7121 51.3898 58.8598 53.936 63.3928 58.4684C64.1463 59.277 64.5565 60.3465 64.537 61.4516C64.5175 62.5567 64.0698 63.6111 63.2883 64.3926C62.5067 65.1741 61.4524 65.6218 60.3473 65.6413C59.2422 65.6608 58.1727 65.2506 57.3641 64.4971M41.2798 70.5259C41.94 69.8655 42.7238 69.3417 43.5865 68.9843C44.4491 68.6269 45.3738 68.4429 46.3076 68.4429C47.2413 68.4429 48.166 68.6269 49.0286 68.9843C49.8913 69.3417 50.6751 69.8655 51.3353 70.5259C52.1341 71.3257 52.5828 72.4099 52.5828 73.5403C52.5828 74.6707 52.1341 75.7548 51.3353 76.5546L49.3162 78.5737C48.5164 79.3725 47.4323 79.8212 46.3019 79.8212C45.1715 79.8212 44.0873 79.3725 43.2875 78.5737L41.2741 76.5603C40.4753 75.7605 40.0266 74.6763 40.0266 73.546C40.0266 72.4156 40.4753 71.3314 41.2741 70.5316L41.2798 70.5259Z" fill="white"/>
</svg>
