<svg width="63" height="92" viewBox="0 0 63 92" fill="none" xmlns="http://www.w3.org/2000/svg">
<path d="M31.6875 8.7312C18.248 8.7312 8.93751 18.3431 8.93751 30.0593C8.93751 35.6558 11.349 39.3015 14.534 43.1633L15.7511 44.6023C17.0195 46.1038 18.4243 47.7645 19.5788 49.4253C21.1941 51.7628 22.633 54.5213 23.1108 57.8996C23.2246 58.9971 22.9088 60.096 22.2296 60.9656C21.5505 61.8351 20.5608 62.4077 19.4684 62.563C18.376 62.7183 17.2659 62.4443 16.3713 61.7985C15.4767 61.1527 14.8671 60.1854 14.6705 59.0997C14.443 57.4958 13.7435 55.9886 12.5661 54.2824C11.6056 52.9412 10.5767 51.6503 9.48351 50.4149C9.00576 49.8461 8.49957 49.2489 7.95926 48.5949C4.39319 44.2781 0.40625 38.6816 0.40625 30.0593C0.40625 13.3381 13.8458 0.199951 31.6875 0.199951C49.5292 0.199951 62.9688 13.3381 62.9688 30.0593C62.9688 38.6816 58.9819 44.2781 55.4158 48.5949C54.8755 49.2489 54.3693 49.8461 53.8916 50.4092C52.7142 51.8026 51.7132 52.9856 50.8146 54.2824C49.6316 55.9886 48.9377 57.4958 48.7102 59.0997C48.5005 60.1746 47.8859 61.128 46.9933 61.7627C46.1008 62.3974 44.9985 62.665 43.9143 62.5102C42.8301 62.3554 41.8467 61.7901 41.1675 60.931C40.4882 60.0719 40.1648 58.9846 40.2643 57.894C40.742 54.5213 42.181 51.7628 43.7962 49.4253C44.9508 47.7645 46.3556 46.1038 47.6239 44.6023C48.0505 44.1018 48.46 43.6183 48.8354 43.1633C52.0261 39.3015 54.4376 35.6558 54.4376 30.0593C54.4376 18.3431 45.1271 8.7312 31.6875 8.7312ZM18.8906 68.45H44.4844C45.6157 68.45 46.7007 68.8994 47.5007 69.6993C48.3006 70.4993 48.75 71.5843 48.75 72.7156C48.75 73.8469 48.3006 74.9319 47.5007 75.7318C46.7007 76.5318 45.6157 76.9812 44.4844 76.9812H18.8906C17.7593 76.9812 16.6743 76.5318 15.8744 75.7318C15.0744 74.9319 14.625 73.8469 14.625 72.7156C14.625 71.5843 15.0744 70.4993 15.8744 69.6993C16.6743 68.8994 17.7593 68.45 18.8906 68.45ZM20.3125 86.9343C20.3125 85.803 20.7619 84.718 21.5619 83.9181C22.3619 83.1181 23.4468 82.6687 24.5781 82.6687H38.7969C39.9282 82.6687 41.0132 83.1181 41.8132 83.9181C42.6131 84.718 43.0625 85.803 43.0625 86.9343C43.0625 88.0656 42.6131 89.1506 41.8132 89.9506C41.0132 90.7505 39.9282 91.2 38.7969 91.2H24.5781C23.4468 91.2 22.3619 90.7505 21.5619 89.9506C20.7619 89.1506 20.3125 88.0656 20.3125 86.9343Z" fill="#B9B9B9"/>
</svg>
