<svg width="92" height="92" viewBox="0 0 92 92" fill="none" xmlns="http://www.w3.org/2000/svg">
<g clip-path="url(#clip0_323_2097)">
<mask id="path-1-inside-1_323_2097" fill="white">
<path d="M35.8028 77.2603C35.5234 76.8089 35.5234 76.7552 35.9963 75.6912C37.1463 73.144 37.028 70.5323 35.6524 67.5767C34.3089 64.7071 34.0402 62.2029 34.7818 59.5698C35.4482 57.173 36.3724 56.2165 37.2108 57.0441C37.6192 57.474 37.6084 57.5815 36.7916 59.8277C36.4399 60.9664 36.3177 62.1636 36.4321 63.3498C36.5465 64.5361 36.8952 65.6879 37.458 66.7384C39.0701 69.952 39.1668 73.6921 37.7266 76.6262C37.2967 77.4645 37.1678 77.6043 36.6734 77.658C36.2327 77.701 36.0285 77.615 35.8136 77.2496L35.8028 77.2603ZM44.992 77.443C44.5836 77.0346 44.6696 76.6155 45.207 75.2935C45.5605 74.4042 45.7428 73.4561 45.7444 72.4991C45.8518 70.6398 45.6799 69.866 44.6374 67.48C43.6701 65.266 43.4551 64.3417 43.4766 62.4071C43.4766 59.9352 44.4439 57.0226 45.3252 56.7969C45.9701 56.6357 46.5075 56.9903 46.5075 57.5492C46.5075 57.8072 46.2925 58.5487 46.0238 59.1936C45.5939 60.2469 45.5402 60.58 45.5402 62.4931C45.5402 64.5352 45.5617 64.6856 46.1313 65.9538C47.6359 69.3501 47.6359 69.3071 47.7112 71.4781C47.8187 73.7888 47.5392 75.1753 46.7224 76.6907C46.3247 77.443 46.1528 77.6043 45.6906 77.658C45.3682 77.6902 45.0458 77.6043 44.9383 77.443H44.992ZM54.02 77.4215C53.7084 77.0991 53.8051 76.6047 54.4499 74.8421C54.7785 73.9632 54.9318 73.0285 54.9013 72.0907C54.9013 70.3926 54.6971 69.565 53.7943 67.5552C53.4129 66.7224 53.0897 65.8641 52.827 64.9866C52.471 63.3212 52.4747 61.599 52.8378 59.9352C53.1387 58.71 53.8696 57.0763 54.2135 56.8506C54.4277 56.7239 54.6831 56.6867 54.9246 56.747C55.166 56.8074 55.3739 56.9604 55.5032 57.173C55.7826 57.603 55.7719 57.6782 55.213 59.0754C54.7046 60.2792 54.4717 61.5813 54.5312 62.8867C54.5907 64.1921 54.9412 65.4677 55.5569 66.6202C56.4554 68.2664 56.9074 70.119 56.8682 71.994C56.9322 73.1241 56.7752 74.2558 56.406 75.3258C55.8364 77.0561 55.385 77.6902 54.7079 77.6902C54.4284 77.6902 54.106 77.5828 53.9878 77.4215H54.02ZM0.722589 51.2081C0.516796 50.995 0.362403 50.7377 0.271189 50.4558C0.192763 45.0179 0.178432 39.5792 0.228199 34.1409L0.271189 18.2345L0.862309 17.0522C1.49478 15.685 2.63056 14.6147 4.03286 14.0644C5.00014 13.7097 5.21509 13.7097 45.6799 13.7097C86.1554 13.7097 86.3704 13.7097 87.3377 14.0644C88.7344 14.6178 89.8681 15.6823 90.5082 17.0415L91.0886 18.2237L91.1423 34.1409C91.1746 42.8895 91.1423 50.2301 91.0993 50.4558C91.0081 50.7377 90.8537 50.995 90.6479 51.2081C90.2933 51.5628 89.8633 51.5628 45.6799 51.5628C1.50716 51.5628 1.07726 51.4983 0.722589 51.1436V51.2081ZM4.65622 44.4049C4.70996 40.31 4.7422 40.0629 5.13986 39.246C5.442 38.6711 5.88592 38.1828 6.42958 37.8274L7.26789 37.2577H84.2208L85.0484 37.8274C85.5761 38.193 86.0046 38.6842 86.2951 39.2568C86.6928 40.0629 86.725 40.31 86.768 44.4156L86.8325 48.7147H88.2297V33.883C88.2297 17.869 88.2512 18.3527 87.2947 17.4821L86.8648 17.0737L86.7573 18.3097C86.5746 20.2013 85.833 21.3728 84.425 21.9639C83.8447 22.2111 79.6639 22.2433 45.7336 22.2433C11.7926 22.2971 7.62256 22.2863 7.02069 22.0391C5.6235 21.4587 4.87117 20.2873 4.7207 18.3957L4.61323 17.1704L4.18332 17.5789C3.21604 18.4387 3.23753 17.9765 3.23753 33.969V48.8007H4.63472L4.65622 44.4049ZM40.7037 34.9792C40.0804 34.6676 40.0051 33.754 40.564 33.3671C40.9079 33.1199 41.6495 33.0769 45.6799 33.0769C51 33.0769 51.2686 33.1306 51.1612 34.2054C51.0644 35.1404 50.7313 35.2049 45.6799 35.2049C42.3911 35.2049 41.0262 35.1404 40.7037 34.99V34.9792ZM75.0961 34.6031C74.7737 34.1087 74.9456 33.5713 75.5583 33.2489C76.3643 32.819 77.2349 34.1624 76.5685 34.818C76.2031 35.1942 75.397 35.076 75.0854 34.6031H75.0961ZM79.7283 34.6353C79.1587 33.7755 80.1153 32.776 80.9858 33.3456C81.448 33.6465 81.5662 34.4526 81.2008 34.818C80.8354 35.1834 80.0185 35.076 79.7283 34.6353ZM84.6078 47.9194V47.124H6.76275V48.7147H84.6078V47.9194ZM84.6078 44.1899V43.2119H6.76275V45.168H84.6078V44.1899ZM84.6078 40.6755C84.6078 40.2133 84.1456 39.6007 83.5975 39.3213C83.318 39.1815 72.9681 39.1171 45.6799 39.1171C18.3917 39.1171 8.06321 39.1815 7.77303 39.3213C7.23565 39.6007 6.7735 40.2133 6.76275 40.6755V41.0731H84.6078V40.6755ZM84.0704 19.7606C84.554 19.277 84.6078 19.148 84.6078 17.9013V16.5363H6.752V17.8905C6.752 19.1373 6.78425 19.2662 7.26789 19.7499L7.80527 20.2765H83.5115L84.0704 19.7606Z"/>
</mask>
<path d="M35.8028 77.2603C35.5234 76.8089 35.5234 76.7552 35.9963 75.6912C37.1463 73.144 37.028 70.5323 35.6524 67.5767C34.3089 64.7071 34.0402 62.2029 34.7818 59.5698C35.4482 57.173 36.3724 56.2165 37.2108 57.0441C37.6192 57.474 37.6084 57.5815 36.7916 59.8277C36.4399 60.9664 36.3177 62.1636 36.4321 63.3498C36.5465 64.5361 36.8952 65.6879 37.458 66.7384C39.0701 69.952 39.1668 73.6921 37.7266 76.6262C37.2967 77.4645 37.1678 77.6043 36.6734 77.658C36.2327 77.701 36.0285 77.615 35.8136 77.2496L35.8028 77.2603ZM44.992 77.443C44.5836 77.0346 44.6696 76.6155 45.207 75.2935C45.5605 74.4042 45.7428 73.4561 45.7444 72.4991C45.8518 70.6398 45.6799 69.866 44.6374 67.48C43.6701 65.266 43.4551 64.3417 43.4766 62.4071C43.4766 59.9352 44.4439 57.0226 45.3252 56.7969C45.9701 56.6357 46.5075 56.9903 46.5075 57.5492C46.5075 57.8072 46.2925 58.5487 46.0238 59.1936C45.5939 60.2469 45.5402 60.58 45.5402 62.4931C45.5402 64.5352 45.5617 64.6856 46.1313 65.9538C47.6359 69.3501 47.6359 69.3071 47.7112 71.4781C47.8187 73.7888 47.5392 75.1753 46.7224 76.6907C46.3247 77.443 46.1528 77.6043 45.6906 77.658C45.3682 77.6902 45.0458 77.6043 44.9383 77.443H44.992ZM54.02 77.4215C53.7084 77.0991 53.8051 76.6047 54.4499 74.8421C54.7785 73.9632 54.9318 73.0285 54.9013 72.0907C54.9013 70.3926 54.6971 69.565 53.7943 67.5552C53.4129 66.7224 53.0897 65.8641 52.827 64.9866C52.471 63.3212 52.4747 61.599 52.8378 59.9352C53.1387 58.71 53.8696 57.0763 54.2135 56.8506C54.4277 56.7239 54.6831 56.6867 54.9246 56.747C55.166 56.8074 55.3739 56.9604 55.5032 57.173C55.7826 57.603 55.7719 57.6782 55.213 59.0754C54.7046 60.2792 54.4717 61.5813 54.5312 62.8867C54.5907 64.1921 54.9412 65.4677 55.5569 66.6202C56.4554 68.2664 56.9074 70.119 56.8682 71.994C56.9322 73.1241 56.7752 74.2558 56.406 75.3258C55.8364 77.0561 55.385 77.6902 54.7079 77.6902C54.4284 77.6902 54.106 77.5828 53.9878 77.4215H54.02ZM0.722589 51.2081C0.516796 50.995 0.362403 50.7377 0.271189 50.4558C0.192763 45.0179 0.178432 39.5792 0.228199 34.1409L0.271189 18.2345L0.862309 17.0522C1.49478 15.685 2.63056 14.6147 4.03286 14.0644C5.00014 13.7097 5.21509 13.7097 45.6799 13.7097C86.1554 13.7097 86.3704 13.7097 87.3377 14.0644C88.7344 14.6178 89.8681 15.6823 90.5082 17.0415L91.0886 18.2237L91.1423 34.1409C91.1746 42.8895 91.1423 50.2301 91.0993 50.4558C91.0081 50.7377 90.8537 50.995 90.6479 51.2081C90.2933 51.5628 89.8633 51.5628 45.6799 51.5628C1.50716 51.5628 1.07726 51.4983 0.722589 51.1436V51.2081ZM4.65622 44.4049C4.70996 40.31 4.7422 40.0629 5.13986 39.246C5.442 38.6711 5.88592 38.1828 6.42958 37.8274L7.26789 37.2577H84.2208L85.0484 37.8274C85.5761 38.193 86.0046 38.6842 86.2951 39.2568C86.6928 40.0629 86.725 40.31 86.768 44.4156L86.8325 48.7147H88.2297V33.883C88.2297 17.869 88.2512 18.3527 87.2947 17.4821L86.8648 17.0737L86.7573 18.3097C86.5746 20.2013 85.833 21.3728 84.425 21.9639C83.8447 22.2111 79.6639 22.2433 45.7336 22.2433C11.7926 22.2971 7.62256 22.2863 7.02069 22.0391C5.6235 21.4587 4.87117 20.2873 4.7207 18.3957L4.61323 17.1704L4.18332 17.5789C3.21604 18.4387 3.23753 17.9765 3.23753 33.969V48.8007H4.63472L4.65622 44.4049ZM40.7037 34.9792C40.0804 34.6676 40.0051 33.754 40.564 33.3671C40.9079 33.1199 41.6495 33.0769 45.6799 33.0769C51 33.0769 51.2686 33.1306 51.1612 34.2054C51.0644 35.1404 50.7313 35.2049 45.6799 35.2049C42.3911 35.2049 41.0262 35.1404 40.7037 34.99V34.9792ZM75.0961 34.6031C74.7737 34.1087 74.9456 33.5713 75.5583 33.2489C76.3643 32.819 77.2349 34.1624 76.5685 34.818C76.2031 35.1942 75.397 35.076 75.0854 34.6031H75.0961ZM79.7283 34.6353C79.1587 33.7755 80.1153 32.776 80.9858 33.3456C81.448 33.6465 81.5662 34.4526 81.2008 34.818C80.8354 35.1834 80.0185 35.076 79.7283 34.6353ZM84.6078 47.9194V47.124H6.76275V48.7147H84.6078V47.9194ZM84.6078 44.1899V43.2119H6.76275V45.168H84.6078V44.1899ZM84.6078 40.6755C84.6078 40.2133 84.1456 39.6007 83.5975 39.3213C83.318 39.1815 72.9681 39.1171 45.6799 39.1171C18.3917 39.1171 8.06321 39.1815 7.77303 39.3213C7.23565 39.6007 6.7735 40.2133 6.76275 40.6755V41.0731H84.6078V40.6755ZM84.0704 19.7606C84.554 19.277 84.6078 19.148 84.6078 17.9013V16.5363H6.752V17.8905C6.752 19.1373 6.78425 19.2662 7.26789 19.7499L7.80527 20.2765H83.5115L84.0704 19.7606Z" fill="#B9B9B9" stroke="#ACB8B8" stroke-width="24" mask="url(#path-1-inside-1_323_2097)"/>
</g>
<defs>
<clipPath id="clip0_323_2097">
<rect width="91.0001" height="91" fill="white" transform="translate(0.1875 0.199951)"/>
</clipPath>
</defs>
</svg>
