<svg width="91" height="91" viewBox="0 0 91 91" fill="none" xmlns="http://www.w3.org/2000/svg">
<g clip-path="url(#clip0_346_2100)">
<rect x="-24.6875" y="-24.7002" width="139" height="139" rx="7.5" stroke="#B9B9B9"/>
<path d="M53.3704 76.7812C52.6752 77.6028 51.8069 78.0616 50.7655 78.1576C49.7241 78.2537 48.7913 77.9529 47.9672 77.2552L33.4641 65.1219C30.3044 62.4677 28.0294 59.2448 26.6391 55.4531C25.2488 51.6615 24.9012 47.775 25.5964 43.7938L20.288 39.3385C19.5297 38.6434 19.1038 37.8054 19.0102 36.8247C18.9167 35.8439 19.1847 34.944 19.8141 34.125H15.1693V41.7083C15.1693 43.7938 14.4274 45.5796 12.9436 47.066C11.4598 48.5523 9.67389 49.2942 7.58594 49.2917V11.375C9.67136 11.375 11.4572 12.1182 12.9436 13.6045C14.4299 15.0908 15.1718 16.8754 15.1693 18.9583V26.5417H26.0703L31.9474 19.4323C32.6426 18.6108 33.5121 18.152 34.5561 18.0559C35.6001 17.9599 36.5316 18.2607 37.3506 18.9583L42.5641 23.3188C46.419 21.8653 50.337 21.4861 54.3183 22.1812C58.2996 22.8764 61.87 24.551 65.0298 27.2052L79.5329 39.3385C80.3544 40.0337 80.8132 40.9032 80.9093 41.9472C81.0053 42.9912 80.7045 43.8911 80.0069 44.6469L53.3704 76.7812ZM49.9579 68.9135L71.8548 42.6562L60.1006 32.9875C57.4464 30.8389 54.4295 29.7962 51.0499 29.8594C47.6702 29.9226 44.3677 30.6177 41.1422 31.9448L35.3599 27.2052L28.061 35.926L33.7485 40.6656C32.9901 44.0781 32.8953 47.4755 33.4641 50.8576C34.0329 54.2398 35.6443 57.0355 38.2985 59.2448L49.9579 68.9135Z" fill="white"/>
</g>
<defs>
<clipPath id="clip0_346_2100">
<rect width="91.0001" height="91" fill="white"/>
</clipPath>
</defs>
</svg>
