<svg width="92" height="92" viewBox="0 0 92 92" fill="none" xmlns="http://www.w3.org/2000/svg">
<g clip-path="url(#clip0_323_2081)">
<path d="M76.5196 26.7418V26.2418H76.0196H49.4779H48.9779V26.7418V34.9698V35.3233L49.3113 35.4412C51.3786 36.172 53.1768 37.5105 54.4702 39.2811C55.7636 41.0517 56.4917 43.1718 56.5591 45.3635C56.6265 47.5551 56.0301 49.716 54.848 51.5628C53.667 53.4078 51.9565 54.8533 49.9404 55.7101L49.2941 55.9656L48.9779 56.0906V56.4306V64.6585V65.1585H49.4779H76.0196H76.5196V64.6585V60.8668V60.3668H76.0196H68.4363H68.4361C66.6491 60.3674 64.9279 59.6925 63.6175 58.4774C62.3097 57.2646 61.5076 55.6031 61.3713 53.825L61.353 53.2752V38.1168V38.1167C61.3524 36.3296 62.0273 34.6084 63.2424 33.2981C64.4552 31.9902 66.1167 31.1882 67.8948 31.0518L68.4446 31.0335H76.0196H76.5196V30.5335V26.7418ZM42.3946 26.7418V26.2418H41.8946H15.3529H14.8529V26.7418V30.5335V31.0335H15.3529H22.9362H22.9364C24.7234 31.0329 26.4446 31.7079 27.755 32.923C29.0628 34.1358 29.8649 35.7972 30.0012 37.5754L30.0196 38.1252V53.2835V53.2837C30.0201 55.0707 29.3452 56.7919 28.1301 58.1023C26.9173 59.4101 25.2558 60.2122 23.4777 60.3485L22.9279 60.3668H15.3529H14.8529V60.8668V64.6585V65.1585H15.3529H41.8946H42.3946V64.6585V56.4306V56.077L42.0612 55.9592C39.9939 55.2284 38.1957 53.8899 36.9023 52.1193C35.609 50.3486 34.8808 48.2285 34.8134 46.0369C34.746 43.8452 35.3425 41.6843 36.5246 39.8376C37.7056 37.9925 39.4161 36.547 41.4322 35.6902L42.0784 35.4347L42.3946 35.3097V34.9698V26.7418ZM76.5196 38.1168V37.6168H76.0196H68.4363H67.9363V38.1168V53.2835V53.7835H68.4363H76.0196H76.5196V53.2835V38.1168ZM23.4362 38.1168V37.6168H22.9362H15.3529H14.8529V38.1168V53.2835V53.7835H15.3529H22.9362H23.4362V53.2835V38.1168ZM76.0196 19.6585C77.8983 19.6585 79.6999 20.4048 81.0283 21.7332C82.3567 23.0616 83.103 24.8632 83.103 26.7418V64.6585C83.103 66.5371 82.3567 68.3388 81.0283 69.6672C79.6999 70.9956 77.8983 71.7418 76.0196 71.7418H15.3529C13.4743 71.7418 11.6726 70.9956 10.3442 69.6672C9.01581 68.3388 8.26953 66.5371 8.26953 64.6585V26.7418C8.26953 24.8632 9.01581 23.0616 10.3442 21.7332C11.6726 20.4048 13.4743 19.6585 15.3529 19.6585H76.0196ZM45.6863 41.4085C44.548 41.4085 43.4564 41.8607 42.6516 42.6655C41.8468 43.4704 41.3946 44.562 41.3946 45.7002C41.3946 46.8384 41.8468 47.93 42.6516 48.7348C43.4564 49.5397 44.548 49.9918 45.6863 49.9918C46.8245 49.9918 47.9161 49.5397 48.7209 48.7348C49.5258 47.93 49.9779 46.8384 49.9779 45.7002C49.9779 44.562 49.5258 43.4704 48.7209 42.6655C47.9161 41.8607 46.8245 41.4085 45.6863 41.4085Z" fill="#B9B9B9" stroke="#F7F8F9"/>
</g>
<defs>
<clipPath id="clip0_323_2081">
<rect width="91.0001" height="91" fill="white" transform="translate(0.1875 0.200195)"/>
</clipPath>
</defs>
</svg>
