<svg width="69" height="69" viewBox="0 0 69 69" fill="none" xmlns="http://www.w3.org/2000/svg">
<mask id="path-1-inside-1_323_2061" fill="white">
<path fill-rule="evenodd" clip-rule="evenodd" d="M14.7813 8.34218C14.7813 4.63242 28.9061 1.66118 33.3595 0.816591C34.2385 0.649872 35.1366 0.649872 36.0157 0.81659C40.469 1.66118 54.5938 4.63242 54.5938 8.34218C54.5938 11.4108 53.6048 13.5519 52.6605 14.8969C51.7345 16.2157 50.1106 16.6895 48.4992 16.6895H20.8759C19.2645 16.6895 17.6406 16.2157 16.7147 14.8969C15.7704 13.5519 14.7813 11.4108 14.7813 8.34218ZM37.5313 9.1062C37.5313 9.86041 37.2317 10.5837 36.6984 11.117C36.1651 11.6503 35.4418 11.95 34.6876 11.95C33.9333 11.95 33.21 11.6503 32.6767 11.117C32.1434 10.5837 31.8438 9.86041 31.8438 9.1062C31.8438 8.35199 32.1434 7.62867 32.6767 7.09537C33.21 6.56206 33.9333 6.26245 34.6876 6.26245C35.4418 6.26245 36.1651 6.56206 36.6984 7.09537C37.2317 7.62867 37.5313 8.35199 37.5313 9.1062ZM49.5016 23.8558C51.8174 22.0482 49.5907 19.5333 46.653 19.5333H20.5402C18.8654 19.5333 17.3087 19.7114 17.8875 21.2831C18.3483 22.5346 19.6567 24.6836 19.561 26.0138C19.4512 27.5391 19.5724 29.0766 19.9242 30.5735C20.4431 32.7808 21.4503 34.8436 22.8716 36.6103C24.293 38.3769 26.0924 39.8024 28.1374 40.7818C30.1825 41.7612 32.4211 42.2696 34.6885 42.2696C36.956 42.2696 39.1946 41.7612 41.2396 40.7818C43.2846 39.8024 45.084 38.3769 46.5054 36.6103C47.9268 34.8436 48.9339 32.7808 49.4528 30.5735C49.9716 28.3662 49.989 26.0707 49.5035 23.8558M34.6876 27.1166C37.2426 27.1166 39.4173 26.9706 41.2674 26.719C43.7395 26.3829 46.2954 28.0543 45.5646 30.4397C45.0914 31.9845 44.2944 33.4108 43.2269 34.6235C42.1594 35.8363 40.8458 36.8077 39.3736 37.4732C37.9013 38.1386 36.3042 38.4828 34.6885 38.4828C33.0728 38.4828 31.4757 38.1386 30.0035 37.4732C28.5312 36.8077 27.2176 35.8363 26.1501 34.6235C25.0826 33.4108 24.2857 31.9845 23.8124 30.4397C23.0816 28.0543 25.6374 26.383 28.1096 26.7192C29.959 26.9706 32.1329 27.1166 34.6876 27.1166ZM37.5313 46.075C38.0341 46.075 38.5163 46.2747 38.8719 46.6302C39.2274 46.9858 39.4272 47.468 39.4272 47.9708V50.5908C39.427 50.9428 39.3288 51.2878 39.1436 51.5871C38.9585 51.8865 38.6936 52.1284 38.3788 52.2857C37.8783 52.5365 37.6074 53.091 37.7172 53.6399L37.794 54.024C38.1008 55.5576 40.1086 55.9548 40.9761 54.6535L45.9605 47.1769C46.3997 46.5181 47.158 46.1219 47.9498 46.128C48.1205 46.1293 48.2715 46.1489 48.4378 46.1874C58.6029 48.5452 68.8126 53.2919 68.8126 60.4037V60.825C68.8126 65.2432 65.2309 68.825 60.8126 68.825H8.56251C4.14423 68.825 0.5625 65.2432 0.5625 60.825V60.4037C0.5625 53.2336 11.3953 48.4125 21.6404 46.075C20.9932 46.2112 22.9123 46.4234 23.2792 46.9737L28.4089 54.6671C29.2854 55.9815 31.3158 55.5645 31.6032 54.011L31.6714 53.6424C31.7735 53.0904 31.4983 52.5372 30.9964 52.2857C30.6815 52.1284 30.4167 51.8865 30.2315 51.5871C30.0463 51.2878 29.9482 50.9428 29.948 50.5908V47.9708C29.948 47.468 30.1477 46.9858 30.5032 46.6302C30.8588 46.2747 31.341 46.075 31.8438 46.075H37.5313ZM54.8546 58.1121C55.334 57.019 55.3917 56.1406 54.361 55.5386C53.1574 54.8356 50.3428 54.8356 49.1392 55.5386C48.1085 56.1406 48.1662 57.019 48.6456 58.1121C49.272 59.5408 50.3185 61.2416 51.7501 61.2416C53.1817 61.2416 54.2281 59.5408 54.8546 58.1121Z"/>
</mask>
<path fill-rule="evenodd" clip-rule="evenodd" d="M14.7813 8.34218C14.7813 4.63242 28.9061 1.66118 33.3595 0.816591C34.2385 0.649872 35.1366 0.649872 36.0157 0.81659C40.469 1.66118 54.5938 4.63242 54.5938 8.34218C54.5938 11.4108 53.6048 13.5519 52.6605 14.8969C51.7345 16.2157 50.1106 16.6895 48.4992 16.6895H20.8759C19.2645 16.6895 17.6406 16.2157 16.7147 14.8969C15.7704 13.5519 14.7813 11.4108 14.7813 8.34218ZM37.5313 9.1062C37.5313 9.86041 37.2317 10.5837 36.6984 11.117C36.1651 11.6503 35.4418 11.95 34.6876 11.95C33.9333 11.95 33.21 11.6503 32.6767 11.117C32.1434 10.5837 31.8438 9.86041 31.8438 9.1062C31.8438 8.35199 32.1434 7.62867 32.6767 7.09537C33.21 6.56206 33.9333 6.26245 34.6876 6.26245C35.4418 6.26245 36.1651 6.56206 36.6984 7.09537C37.2317 7.62867 37.5313 8.35199 37.5313 9.1062ZM49.5016 23.8558C51.8174 22.0482 49.5907 19.5333 46.653 19.5333H20.5402C18.8654 19.5333 17.3087 19.7114 17.8875 21.2831C18.3483 22.5346 19.6567 24.6836 19.561 26.0138C19.4512 27.5391 19.5724 29.0766 19.9242 30.5735C20.4431 32.7808 21.4503 34.8436 22.8716 36.6103C24.293 38.3769 26.0924 39.8024 28.1374 40.7818C30.1825 41.7612 32.4211 42.2696 34.6885 42.2696C36.956 42.2696 39.1946 41.7612 41.2396 40.7818C43.2846 39.8024 45.084 38.3769 46.5054 36.6103C47.9268 34.8436 48.9339 32.7808 49.4528 30.5735C49.9716 28.3662 49.989 26.0707 49.5035 23.8558M34.6876 27.1166C37.2426 27.1166 39.4173 26.9706 41.2674 26.719C43.7395 26.3829 46.2954 28.0543 45.5646 30.4397C45.0914 31.9845 44.2944 33.4108 43.2269 34.6235C42.1594 35.8363 40.8458 36.8077 39.3736 37.4732C37.9013 38.1386 36.3042 38.4828 34.6885 38.4828C33.0728 38.4828 31.4757 38.1386 30.0035 37.4732C28.5312 36.8077 27.2176 35.8363 26.1501 34.6235C25.0826 33.4108 24.2857 31.9845 23.8124 30.4397C23.0816 28.0543 25.6374 26.383 28.1096 26.7192C29.959 26.9706 32.1329 27.1166 34.6876 27.1166ZM37.5313 46.075C38.0341 46.075 38.5163 46.2747 38.8719 46.6302C39.2274 46.9858 39.4272 47.468 39.4272 47.9708V50.5908C39.427 50.9428 39.3288 51.2878 39.1436 51.5871C38.9585 51.8865 38.6936 52.1284 38.3788 52.2857C37.8783 52.5365 37.6074 53.091 37.7172 53.6399L37.794 54.024C38.1008 55.5576 40.1086 55.9548 40.9761 54.6535L45.9605 47.1769C46.3997 46.5181 47.158 46.1219 47.9498 46.128C48.1205 46.1293 48.2715 46.1489 48.4378 46.1874C58.6029 48.5452 68.8126 53.2919 68.8126 60.4037V60.825C68.8126 65.2432 65.2309 68.825 60.8126 68.825H8.56251C4.14423 68.825 0.5625 65.2432 0.5625 60.825V60.4037C0.5625 53.2336 11.3953 48.4125 21.6404 46.075C20.9932 46.2112 22.9123 46.4234 23.2792 46.9737L28.4089 54.6671C29.2854 55.9815 31.3158 55.5645 31.6032 54.011L31.6714 53.6424C31.7735 53.0904 31.4983 52.5372 30.9964 52.2857C30.6815 52.1284 30.4167 51.8865 30.2315 51.5871C30.0463 51.2878 29.9482 50.9428 29.948 50.5908V47.9708C29.948 47.468 30.1477 46.9858 30.5032 46.6302C30.8588 46.2747 31.341 46.075 31.8438 46.075H37.5313ZM54.8546 58.1121C55.334 57.019 55.3917 56.1406 54.361 55.5386C53.1574 54.8356 50.3428 54.8356 49.1392 55.5386C48.1085 56.1406 48.1662 57.019 48.6456 58.1121C49.272 59.5408 50.3185 61.2416 51.7501 61.2416C53.1817 61.2416 54.2281 59.5408 54.8546 58.1121Z" fill="white"/>
<path d="M32.6767 11.117L33.3838 10.4099L32.6767 11.117ZM32.6767 7.09537L33.3838 7.80247L32.6767 7.09537ZM34.6876 6.26245V5.26245V6.26245ZM19.9242 30.5735L18.9508 30.8023L19.9242 30.5735ZM34.6885 42.2696V41.2696V42.2696ZM39.4272 50.5908L40.4272 50.5914V50.5908H39.4272ZM29.948 50.5908H28.948V50.5914L29.948 50.5908ZM31.6714 53.6424L32.6547 53.8244L31.6714 53.6424ZM28.4089 54.6671L27.5769 55.2218L28.4089 54.6671ZM48.4378 46.1874L48.2119 47.1616L48.4378 46.1874ZM45.9605 47.1769L45.1285 46.6222L45.9605 47.1769ZM37.794 54.024L36.8135 54.2201L37.794 54.024ZM40.9761 54.6535L40.1441 54.0988L40.9761 54.6535ZM37.7172 53.6399L36.7366 53.836L37.7172 53.6399ZM19.561 26.0138L18.5636 25.942L19.561 26.0138ZM41.2674 26.719L41.4021 27.7099L41.2674 26.719ZM23.2792 46.9737L24.1112 46.4189L23.2792 46.9737ZM48.6456 58.1121L47.7297 58.5137L48.6456 58.1121ZM36.0157 0.81659L35.8293 1.79908L36.0157 0.81659ZM15.7813 8.34218C15.7813 8.21287 15.8409 7.9892 16.1395 7.65805C16.4383 7.32671 16.9107 6.96375 17.5619 6.5837C18.8617 5.82515 20.685 5.10578 22.706 4.4571C26.7337 3.1643 31.3295 2.2194 33.5458 1.79908L33.1731 -0.165896C30.9361 0.25837 26.2428 1.22139 22.0947 2.55279C20.0278 3.21622 18.0416 3.98803 16.5538 4.85635C15.8112 5.28973 15.1453 5.77413 14.6543 6.31865C14.163 6.86336 13.7813 7.54405 13.7813 8.34218H15.7813ZM35.8293 1.79908C38.0456 2.2194 42.6414 3.1643 46.6691 4.4571C48.6901 5.10578 50.5135 5.82515 51.8132 6.58369C52.4644 6.96375 52.9368 7.32671 53.2356 7.65805C53.5342 7.9892 53.5938 8.21287 53.5938 8.34218H55.5938C55.5938 7.54405 55.2121 6.86336 54.7209 6.31865C54.2298 5.77413 53.5639 5.28973 52.8213 4.85635C51.3335 3.98803 49.3473 3.21622 47.2804 2.55279C43.1324 1.22138 38.4391 0.258369 36.202 -0.165896L35.8293 1.79908ZM53.5938 8.34218C53.5938 11.1805 52.6832 13.1243 51.842 14.3223L53.4789 15.4715C54.5264 13.9796 55.5938 11.6411 55.5938 8.34218H53.5938ZM48.4992 15.6895H20.8759V17.6895H48.4992V15.6895ZM17.5331 14.3223C16.692 13.1243 15.7813 11.1805 15.7813 8.34218H13.7813C13.7813 11.6411 14.8488 13.9796 15.8962 15.4715L17.5331 14.3223ZM36.5313 9.1062C36.5313 9.59519 36.3371 10.0642 35.9913 10.4099L37.4055 11.8241C38.1263 11.1033 38.5313 10.1256 38.5313 9.1062H36.5313ZM35.9913 10.4099C35.6455 10.7557 35.1766 10.95 34.6876 10.95V12.95C35.707 12.95 36.6847 12.545 37.4055 11.8241L35.9913 10.4099ZM34.6876 10.95C34.1986 10.95 33.7296 10.7557 33.3838 10.4099L31.9696 11.8241C32.6905 12.545 33.6681 12.95 34.6876 12.95V10.95ZM33.3838 10.4099C33.0381 10.0642 32.8438 9.59519 32.8438 9.1062H30.8438C30.8438 10.1256 31.2488 11.1033 31.9696 11.8241L33.3838 10.4099ZM32.8438 9.1062C32.8438 8.61721 33.0381 8.14824 33.3838 7.80247L31.9696 6.38826C31.2488 7.1091 30.8438 8.08677 30.8438 9.1062H32.8438ZM33.3838 7.80247C33.7296 7.4567 34.1986 7.26245 34.6876 7.26245V5.26245C33.6681 5.26245 32.6905 5.66742 31.9696 6.38826L33.3838 7.80247ZM34.6876 7.26245C35.1766 7.26245 35.6455 7.4567 35.9913 7.80247L37.4055 6.38826C36.6847 5.66742 35.707 5.26245 34.6876 5.26245V7.26245ZM35.9913 7.80247C36.3371 8.14824 36.5313 8.61721 36.5313 9.1062H38.5313C38.5313 8.08677 38.1263 7.1091 37.4055 6.38826L35.9913 7.80247ZM46.653 18.5333H20.5402V20.5333H46.653V18.5333ZM18.5636 25.942C18.4465 27.5679 18.5757 29.2067 18.9508 30.8023L20.8977 30.3447C20.569 28.9465 20.4558 27.5104 20.5584 26.0856L18.5636 25.942ZM18.9508 30.8023C19.5038 33.1551 20.5774 35.354 22.0925 37.2371L23.6508 35.9834C22.3231 34.3333 21.3824 32.4064 20.8977 30.3447L18.9508 30.8023ZM22.0925 37.2371C23.6076 39.1203 25.5256 40.6397 27.7055 41.6837L28.5694 39.8799C26.6592 38.9651 24.9784 37.6336 23.6508 35.9834L22.0925 37.2371ZM27.7055 41.6837C29.8854 42.7277 32.2716 43.2696 34.6885 43.2696V41.2696C32.5706 41.2696 30.4796 40.7947 28.5694 39.8799L27.7055 41.6837ZM34.6885 43.2696C37.1055 43.2696 39.4917 42.7277 41.6715 41.6837L40.8076 39.8799C38.8975 40.7947 36.8065 41.2696 34.6885 41.2696V43.2696ZM41.6715 41.6837C43.8514 40.6397 45.7694 39.1203 47.2845 37.2371L45.7262 35.9834C44.3986 37.6336 42.7178 38.9651 40.8076 39.8799L41.6715 41.6837ZM47.2845 37.2371C48.7996 35.354 49.8732 33.1551 50.4263 30.8023L48.4793 30.3447C47.9947 32.4064 47.0539 34.3332 45.7262 35.9834L47.2845 37.2371ZM50.4263 30.8023C50.9793 28.4495 50.9978 26.0026 50.4803 23.6417L48.5267 24.0699C48.9802 26.1387 48.964 28.2829 48.4793 30.3447L50.4263 30.8023ZM34.6876 28.1166C37.28 28.1166 39.5003 27.9685 41.4021 27.7099L41.1327 25.7282C39.3342 25.9727 37.2053 26.1166 34.6876 26.1166V28.1166ZM44.6085 30.1468C44.1768 31.5558 43.45 32.8566 42.4763 33.9628L43.9776 35.2842C45.1389 33.9649 46.0059 32.4132 46.5207 30.7326L44.6085 30.1468ZM42.4763 33.9628C41.5027 35.0689 40.3045 35.955 38.9617 36.5619L39.7854 38.3844C41.3871 37.6605 42.8162 36.6036 43.9776 35.2842L42.4763 33.9628ZM38.9617 36.5619C37.6189 37.1689 36.1621 37.4828 34.6885 37.4828V39.4828C36.4462 39.4828 38.1837 39.1084 39.7854 38.3844L38.9617 36.5619ZM34.6885 37.4828C33.2149 37.4828 31.7582 37.1689 30.4153 36.5619L29.5916 38.3844C31.1933 39.1084 32.9308 39.4828 34.6885 39.4828V37.4828ZM30.4153 36.5619C29.0725 35.955 27.8744 35.0689 26.9007 33.9628L25.3994 35.2842C26.5608 36.6036 27.9899 37.6605 29.5916 38.3844L30.4153 36.5619ZM26.9007 33.9628C25.927 32.8566 25.2002 31.5558 24.7686 30.1468L22.8563 30.7326C23.3711 32.4132 24.2381 33.9649 25.3994 35.2842L26.9007 33.9628ZM27.9748 27.71C29.876 27.9685 32.0956 28.1166 34.6876 28.1166V26.1166C32.1702 26.1166 30.0421 25.9727 28.2443 25.7283L27.9748 27.71ZM37.5313 47.075C37.7689 47.075 37.9968 47.1693 38.1648 47.3373L39.579 45.9231C39.0359 45.38 38.2993 45.075 37.5313 45.075V47.075ZM38.1648 47.3373C38.3328 47.5053 38.4272 47.7332 38.4272 47.9708H40.4272C40.4272 47.2028 40.1221 46.4662 39.579 45.9231L38.1648 47.3373ZM38.4272 47.9708V50.5908H40.4272V47.9708H38.4272ZM38.4272 50.5903C38.4271 50.7566 38.3807 50.9196 38.2932 51.0611L39.9941 52.1132C40.2769 51.656 40.4269 51.129 40.4272 50.5914L38.4272 50.5903ZM38.2932 51.0611C38.2057 51.2025 38.0805 51.3168 37.9318 51.3912L38.8258 53.1802C39.3067 52.9399 39.7112 52.5704 39.9941 52.1132L38.2932 51.0611ZM36.7366 53.836L36.8135 54.2201L38.7746 53.8279L38.6978 53.4437L36.7366 53.836ZM41.8082 55.2082L46.7926 47.7316L45.1285 46.6222L40.1441 54.0988L41.8082 55.2082ZM48.2119 47.1616C53.2395 48.3277 58.2163 50.0724 61.9102 52.3627C65.639 54.6746 67.8126 57.3772 67.8126 60.4037H69.8126C69.8126 56.3184 66.8814 53.0917 62.9641 50.6629C59.0119 48.2125 53.8012 46.4049 48.6638 45.2133L48.2119 47.1616ZM67.8126 60.4037V60.825H69.8126V60.4037H67.8126ZM60.8126 67.825H8.56251V69.825H60.8126V67.825ZM1.5625 60.825V60.4037H-0.4375V60.825H1.5625ZM1.5625 60.4037C1.5625 57.3692 3.86297 54.6317 7.77411 52.2846C11.6374 49.9662 16.7941 48.2064 21.8629 47.0499L21.418 45.1C16.2417 46.2811 10.8594 48.1006 6.74498 50.5697C2.67844 53.01 -0.4375 56.2681 -0.4375 60.4037H1.5625ZM22.4472 47.5284L27.5769 55.2218L29.2409 54.1123L24.1112 46.4189L22.4472 47.5284ZM32.5865 54.1929L32.6547 53.8244L30.6881 53.4605L30.6199 53.8291L32.5865 54.1929ZM31.4434 51.3912C31.2946 51.3168 31.1694 51.2025 31.0819 51.0611L29.381 52.1132C29.6639 52.5704 30.0684 52.9399 30.5494 53.1802L31.4434 51.3912ZM31.0819 51.0611C30.9944 50.9196 30.9481 50.7566 30.948 50.5903L28.948 50.5914C28.9483 51.129 29.0982 51.656 29.381 52.1132L31.0819 51.0611ZM30.948 50.5908V47.9708H28.948V50.5908H30.948ZM30.948 47.9708C30.948 47.7332 31.0424 47.5053 31.2104 47.3373L29.7961 45.9231C29.2531 46.4662 28.948 47.2028 28.948 47.9708H30.948ZM31.2104 47.3373C31.3784 47.1693 31.6062 47.075 31.8438 47.075V45.075C31.0758 45.075 30.3392 45.38 29.7961 45.9231L31.2104 47.3373ZM31.8438 47.075H37.5313V45.075H31.8438V47.075ZM47.7297 58.5137C48.0603 59.2676 48.5256 60.1524 49.1375 60.8644C49.7393 61.5647 50.6112 62.2416 51.7501 62.2416V60.2416C51.4574 60.2416 51.0902 60.0681 50.6543 59.5609C50.2284 59.0653 49.8573 58.3853 49.5614 57.7105L47.7297 58.5137ZM51.7501 62.2416C52.889 62.2416 53.7609 61.5647 54.3627 60.8644C54.9746 60.1524 55.4399 59.2676 55.7705 58.5137L53.9388 57.7105C53.6429 58.3853 53.2717 59.0653 52.8459 59.5609C52.4099 60.0681 52.0428 60.2416 51.7501 60.2416V62.2416ZM53.8567 56.4021C54.02 56.4975 54.0941 56.5768 54.1278 56.6238C54.1577 56.6655 54.1744 56.7068 54.182 56.7664C54.2016 56.9217 54.159 57.2082 53.9388 57.7105L55.7705 58.5137C56.0295 57.9228 56.2556 57.2236 56.1662 56.5159C56.0659 55.7216 55.5981 55.1031 54.8654 54.6751L53.8567 56.4021ZM32.6547 53.8244C32.8378 52.8344 32.3444 51.8427 31.4444 51.3917L30.5484 53.1797C30.6522 53.2318 30.7092 53.3463 30.6881 53.4605L32.6547 53.8244ZM27.5769 55.2218C28.9515 57.2833 32.1357 56.6293 32.5865 54.1929L30.6199 53.8291C30.4958 54.4997 29.6193 54.6797 29.2409 54.1123L27.5769 55.2218ZM67.8126 60.825C67.8126 64.6909 64.6786 67.825 60.8126 67.825V69.825C65.7832 69.825 69.8126 65.7955 69.8126 60.825H67.8126ZM47.9421 47.128C48.0327 47.1287 48.1103 47.138 48.2119 47.1616L48.6638 45.2133C48.4327 45.1597 48.2084 45.13 47.9575 45.1281L47.9421 47.128ZM46.7926 47.7316C47.042 47.3575 47.4823 47.1245 47.9421 47.128L47.9575 45.1281C46.8338 45.1194 45.7575 45.6787 45.1285 46.6222L46.7926 47.7316ZM36.8135 54.2201C37.2949 56.6273 40.4464 57.2508 41.8082 55.2082L40.1441 54.0988C39.7707 54.6588 38.9066 54.4879 38.7746 53.8279L36.8135 54.2201ZM37.9307 51.3917C37.0274 51.8443 36.5385 52.8452 36.7366 53.836L38.6978 53.4437C38.6764 53.3367 38.7292 53.2286 38.8268 53.1797L37.9307 51.3917ZM16.9491 21.6287C17.0809 21.9867 17.2666 22.392 17.4508 22.7863C17.6414 23.1945 17.8363 23.6033 18.0154 24.0166C18.1942 24.4291 18.3439 24.8162 18.4431 25.1637C18.5448 25.5205 18.5755 25.7759 18.5636 25.942L20.5584 26.0856C20.5943 25.5866 20.4974 25.0745 20.3663 24.6151C20.2327 24.1465 20.0444 23.6687 19.8505 23.2212C19.6569 22.7746 19.4442 22.3284 19.2629 21.9401C19.0751 21.5379 18.9245 21.2053 18.8259 20.9376L16.9491 21.6287ZM51.842 14.3223C51.1853 15.2577 49.9599 15.6895 48.4992 15.6895V17.6895C50.2614 17.6895 52.2837 17.1737 53.4789 15.4715L51.842 14.3223ZM41.4021 27.7099C42.3936 27.5751 43.3732 27.8525 43.9987 28.3447C44.5864 28.8071 44.8334 29.4125 44.6085 30.1468L46.5207 30.7326C47.0266 29.0815 46.361 27.6585 45.2355 26.7729C44.1477 25.9171 42.6133 25.5268 41.1327 25.7282L41.4021 27.7099ZM21.4344 45.0964C21.368 45.1104 21.2639 45.1353 21.1542 45.1823C21.1053 45.2033 20.7646 45.3404 20.5944 45.7281C20.3477 46.2898 20.6751 46.7279 20.8055 46.8611C20.9347 46.993 21.0731 47.0639 21.1221 47.0886C21.3127 47.1846 21.6258 47.275 21.7815 47.3236C22.0049 47.3934 22.2069 47.4603 22.3677 47.5325C22.5743 47.6253 22.5258 47.6463 22.4472 47.5284L24.1112 46.4189C23.8492 46.0259 23.4232 45.8141 23.1869 45.708C22.905 45.5814 22.5989 45.4836 22.3776 45.4145C22.0886 45.3243 22.0202 45.3016 22.0216 45.3023C22.0233 45.3032 22.1264 45.3514 22.2343 45.4616C22.3434 45.573 22.6635 45.9904 22.4256 46.5322C22.2641 46.8999 21.9482 47.018 21.942 47.0206C21.8751 47.0493 21.8319 47.0566 21.8464 47.0535L21.4344 45.0964ZM20.8759 15.6895C19.4152 15.6895 18.1898 15.2577 17.5331 14.3223L15.8962 15.4715C17.0914 17.1737 19.1138 17.6895 20.8759 17.6895V15.6895ZM48.6348 54.6751C47.9021 55.1031 47.4343 55.7216 47.334 56.5159C47.2446 57.2236 47.4707 57.9228 47.7297 58.5137L49.5614 57.7105C49.3411 57.2082 49.2986 56.9217 49.3182 56.7664C49.3258 56.7068 49.3425 56.6655 49.3724 56.6238C49.4061 56.5768 49.4802 56.4975 49.6435 56.4021L48.6348 54.6751ZM20.5402 18.5333C19.7354 18.5333 18.7075 18.5638 17.9523 18.9096C17.5374 19.0997 17.1014 19.4309 16.888 19.9901C16.68 20.5351 16.7569 21.1068 16.9491 21.6287L18.8259 20.9376C18.7286 20.6735 18.7831 20.6336 18.7566 20.7032C18.7246 20.7869 18.6739 20.7789 18.7852 20.728C18.9081 20.6717 19.1207 20.6158 19.4479 20.5796C19.7657 20.5444 20.1342 20.5333 20.5402 20.5333V18.5333ZM54.8654 54.6751C54.0359 54.1907 52.8188 54.0114 51.7501 54.0114C50.6813 54.0114 49.4643 54.1907 48.6348 54.6751L49.6435 56.4021C50.0176 56.1836 50.8097 56.0114 51.7501 56.0114C52.6905 56.0114 53.4825 56.1836 53.8567 56.4021L54.8654 54.6751ZM50.1169 24.6441C50.8464 24.0747 51.3197 23.3657 51.4363 22.5612C51.5526 21.7585 51.2911 21.0145 50.8503 20.4207C49.991 19.2629 48.3721 18.5333 46.653 18.5333V20.5333C47.8717 20.5333 48.8349 21.0611 49.2444 21.6127C49.438 21.8735 49.4826 22.0972 49.4569 22.2744C49.4315 22.4499 49.3147 22.7331 48.8863 23.0675L50.1169 24.6441ZM24.7686 30.1468C24.5436 29.4125 24.7906 28.8071 25.3782 28.3448C26.0037 27.8526 26.9833 27.5752 27.9748 27.71L28.2443 25.7283C26.7637 25.527 25.2293 25.9171 24.1416 26.7729C23.016 27.6585 22.3504 29.0815 22.8563 30.7326L24.7686 30.1468ZM8.56251 67.825C4.69651 67.825 1.5625 64.6909 1.5625 60.825H-0.4375C-0.4375 65.7955 3.59194 69.825 8.56251 69.825V67.825ZM33.5458 1.79908C34.3017 1.65571 35.0734 1.65571 35.8293 1.79908L36.202 -0.165896C35.1998 -0.355966 34.1753 -0.355965 33.1731 -0.165896L33.5458 1.79908Z" fill="#E8ECF4" mask="url(#path-1-inside-1_323_2061)"/>
</svg>
